<svg width="104" height="104" viewBox="0 0 104 104" fill="none" xmlns="http://www.w3.org/2000/svg">
<path d="M32.1208 52C26.2708 52.1806 21.4861 54.4917 17.7667 58.9333H10.5083C7.54722 58.9333 5.05556 58.2021 3.03333 56.7396C1.01111 55.2771 0 53.1375 0 50.3208C0 37.5736 2.23889 31.2 6.71667 31.2C6.93333 31.2 7.71875 31.5792 9.07292 32.3375C10.4271 33.0958 12.1875 33.8632 14.3542 34.6396C16.5208 35.416 18.6694 35.8042 20.8 35.8042C23.2194 35.8042 25.6208 35.3889 28.0042 34.5583C27.8236 35.8945 27.7333 37.0861 27.7333 38.1333C27.7333 43.1528 29.1958 47.775 32.1208 52ZM90.1333 86.5042C90.1333 90.8375 88.8153 94.259 86.1792 96.7688C83.5431 99.2785 80.0403 100.533 75.6708 100.533H28.3292C23.9597 100.533 20.4569 99.2785 17.8208 96.7688C15.1847 94.259 13.8667 90.8375 13.8667 86.5042C13.8667 84.5903 13.9299 82.7215 14.0562 80.8979C14.1826 79.0743 14.4354 77.1063 14.8146 74.9938C15.1937 72.8813 15.6722 70.9222 16.25 69.1167C16.8278 67.3111 17.6042 65.5507 18.5792 63.8354C19.5542 62.1201 20.6736 60.6576 21.9375 59.4479C23.2014 58.2382 24.7451 57.2722 26.5687 56.55C28.3924 55.8278 30.4056 55.4667 32.6083 55.4667C32.9694 55.4667 33.7458 55.8549 34.9375 56.6313C36.1292 57.4076 37.4472 58.2743 38.8917 59.2313C40.3361 60.1882 42.2681 61.0549 44.6875 61.8313C47.1069 62.6076 49.5444 62.9958 52 62.9958C54.4556 62.9958 56.8931 62.6076 59.3125 61.8313C61.7319 61.0549 63.6639 60.1882 65.1083 59.2313C66.5528 58.2743 67.8708 57.4076 69.0625 56.6313C70.2542 55.8549 71.0306 55.4667 71.3917 55.4667C73.5944 55.4667 75.6076 55.8278 77.4312 56.55C79.2549 57.2722 80.7986 58.2382 82.0625 59.4479C83.3264 60.6576 84.4458 62.1201 85.4208 63.8354C86.3958 65.5507 87.1722 67.3111 87.75 69.1167C88.3278 70.9222 88.8062 72.8813 89.1854 74.9938C89.5646 77.1063 89.8174 79.0743 89.9437 80.8979C90.0701 82.7215 90.1333 84.5903 90.1333 86.5042ZM34.6667 17.3333C34.6667 21.1611 33.3125 24.4292 30.6042 27.1375C27.8958 29.8458 24.6278 31.2 20.8 31.2C16.9722 31.2 13.7042 29.8458 10.9958 27.1375C8.2875 24.4292 6.93333 21.1611 6.93333 17.3333C6.93333 13.5056 8.2875 10.2375 10.9958 7.52917C13.7042 4.82084 16.9722 3.46667 20.8 3.46667C24.6278 3.46667 27.8958 4.82084 30.6042 7.52917C33.3125 10.2375 34.6667 13.5056 34.6667 17.3333ZM72.8 38.1333C72.8 43.875 70.7688 48.7771 66.7063 52.8396C62.6437 56.9021 57.7417 58.9333 52 58.9333C46.2583 58.9333 41.3562 56.9021 37.2937 52.8396C33.2312 48.7771 31.2 43.875 31.2 38.1333C31.2 32.3917 33.2312 27.4896 37.2937 23.4271C41.3562 19.3646 46.2583 17.3333 52 17.3333C57.7417 17.3333 62.6437 19.3646 66.7063 23.4271C70.7688 27.4896 72.8 32.3917 72.8 38.1333ZM104 50.3208C104 53.1375 102.989 55.2771 100.967 56.7396C98.9444 58.2021 96.4528 58.9333 93.4917 58.9333H86.2333C82.5139 54.4917 77.7292 52.1806 71.8792 52C74.8042 47.775 76.2667 43.1528 76.2667 38.1333C76.2667 37.0861 76.1764 35.8945 75.9958 34.5583C78.3792 35.3889 80.7806 35.8042 83.2 35.8042C85.3306 35.8042 87.4792 35.416 89.6458 34.6396C91.8125 33.8632 93.5729 33.0958 94.9271 32.3375C96.2812 31.5792 97.0667 31.2 97.2833 31.2C101.761 31.2 104 37.5736 104 50.3208ZM97.0667 17.3333C97.0667 21.1611 95.7125 24.4292 93.0042 27.1375C90.2958 29.8458 87.0278 31.2 83.2 31.2C79.3722 31.2 76.1042 29.8458 73.3958 27.1375C70.6875 24.4292 69.3333 21.1611 69.3333 17.3333C69.3333 13.5056 70.6875 10.2375 73.3958 7.52917C76.1042 4.82084 79.3722 3.46667 83.2 3.46667C87.0278 3.46667 90.2958 4.82084 93.0042 7.52917C95.7125 10.2375 97.0667 13.5056 97.0667 17.3333Z" fill="url(#paint0_linear_66_413)"/>
<defs>
<linearGradient id="paint0_linear_66_413" x1="52" y1="3.46667" x2="52" y2="100.533" gradientUnits="userSpaceOnUse">
<stop stop-color="#65B6E5"/>
<stop offset="1" stop-color="#00E6C2" stop-opacity="0.93"/>
</linearGradient>
</defs>
</svg>
