<svg width="104" height="96" viewBox="0 0 104 96" fill="none" xmlns="http://www.w3.org/2000/svg">
<path d="M84.5 13.6063V0H19.5V13.6063H3.6048e-08V27.2126C-0.000186119 30.4172 0.720622 33.5768 2.10407 36.4356C3.48751 39.2945 5.49472 41.7722 7.96317 43.6681C10.4316 45.564 13.2919 46.825 16.3126 47.3488C19.3332 47.8726 22.4292 47.6446 25.35 46.6832C30.1205 53.8358 37.3341 58.7969 45.5 60.5412V81.631H39C35.5522 81.631 32.2456 83.0645 29.8076 85.6162C27.3696 88.1679 26 91.6287 26 95.2373H78C78 91.6287 76.6304 88.1679 74.1924 85.6162C71.7544 83.0645 68.4478 81.631 65 81.631H58.5V60.5412C66.6651 58.7949 73.8781 53.8343 78.65 46.6832C81.5708 47.6446 84.6668 47.8726 87.6874 47.3488C90.7081 46.825 93.5684 45.564 96.0368 43.6681C98.5053 41.7722 100.512 39.2945 101.896 36.4356C103.279 33.5768 104 30.4172 104 27.2126V13.6063H84.5ZM19.5 39.5467C16.3756 39.5431 13.3802 38.2425 11.1709 35.9302C8.96162 33.6178 7.71894 30.4827 7.7155 27.2126V20.4095H19.5V27.2126C19.5 31.485 20.254 35.5737 21.6255 39.3358C20.9365 39.4651 20.2215 39.5399 19.5 39.5399V39.5467ZM96.2845 27.2126C96.282 29.0199 95.9004 30.8045 95.1668 32.4405C94.4332 34.0766 93.3654 35.5241 92.0387 36.681C90.7121 37.8378 89.1591 38.6758 87.4892 39.1357C85.8193 39.5956 84.0733 39.6662 82.3745 39.3426C83.7833 35.471 84.5036 31.3623 84.5 27.2194V20.4163H96.2845V27.2194V27.2126Z" fill="url(#paint0_linear_66_451)"/>
<defs>
<linearGradient id="paint0_linear_66_451" x1="52" y1="0" x2="52" y2="95.2373" gradientUnits="userSpaceOnUse">
<stop stop-color="#65B6E5"/>
<stop offset="1" stop-color="#00E6C2"/>
</linearGradient>
</defs>
</svg>
