<svg width="104" height="104" viewBox="0 0 104 104" fill="none" xmlns="http://www.w3.org/2000/svg">
<path d="M52 8.66669C43.4295 8.66669 35.0514 11.2081 27.9253 15.9697C20.7992 20.7312 15.245 27.4989 11.9652 35.4171C8.68542 43.3352 7.82728 52.0481 9.49931 60.4539C11.1713 68.8598 15.2984 76.581 21.3587 82.6413C27.419 88.7016 35.1402 92.8287 43.5461 94.5007C51.9519 96.1727 60.6648 95.3146 68.583 92.0348C76.5011 88.755 83.2688 83.2009 88.0303 76.0747C92.7919 68.9486 95.3333 60.5705 95.3333 52C95.3206 40.5112 90.751 29.4966 82.6272 21.3728C74.5034 13.249 63.4888 8.67946 52 8.66669ZM52 86.6667C45.1436 86.6667 38.4411 84.6335 32.7402 80.8243C27.0393 77.0151 22.596 71.6009 19.9722 65.2664C17.3483 58.9319 16.6618 51.9616 17.9994 45.2369C19.3371 38.5122 22.6387 32.3352 27.487 27.487C32.3352 22.6388 38.5122 19.3371 45.2369 17.9995C51.9615 16.6618 58.9319 17.3484 65.2664 19.9722C71.6009 22.596 77.0151 27.0393 80.8243 32.7402C84.6335 38.4412 86.6667 45.1436 86.6667 52C86.6562 61.191 83.0004 70.0024 76.5014 76.5014C70.0024 83.0004 61.1909 86.6562 52 86.6667ZM61.0919 41.7464L56.3333 44.495V30.3334C56.3333 29.1841 55.8768 28.0819 55.0641 27.2692C54.2515 26.4566 53.1493 26 52 26C50.8507 26 49.7485 26.4566 48.9359 27.2692C48.1232 28.0819 47.6667 29.1841 47.6667 30.3334V52C47.6669 52.7606 47.8672 53.5078 48.2475 54.1664C48.6279 54.8251 49.1749 55.3721 49.8335 55.7525C50.4922 56.1328 51.2394 56.3332 52 56.3334C52.7605 56.3336 53.5078 56.1336 54.1667 55.7536L65.4253 49.2536C65.9185 48.9692 66.3509 48.5905 66.6977 48.1389C67.0445 47.6874 67.2989 47.172 67.4465 46.6221C67.594 46.0722 67.6318 45.4986 67.5576 44.9342C67.4834 44.3697 67.2987 43.8253 67.0141 43.3322C66.7295 42.8392 66.3505 42.407 65.8988 42.0604C65.4471 41.7138 64.9315 41.4596 64.3816 41.3124C63.8316 41.1651 63.258 41.1276 62.6936 41.2021C62.1291 41.2766 61.5849 41.4616 61.0919 41.7464Z" fill="url(#paint0_linear_66_418)"/>
<defs>
<linearGradient id="paint0_linear_66_418" x1="52" y1="8.66669" x2="52" y2="95.3334" gradientUnits="userSpaceOnUse">
<stop stop-color="#65B6E5"/>
<stop offset="1" stop-color="#00E6C2" stop-opacity="0.5"/>
</linearGradient>
</defs>
</svg>
