<svg width="35" height="35" viewBox="0 0 35 35" fill="none" xmlns="http://www.w3.org/2000/svg">
<path d="M17.5 3.5C9.7685 3.5 3.5 9.7685 3.5 17.5C3.5 25.2315 9.7685 31.5 17.5 31.5C25.2315 31.5 31.5 25.2315 31.5 17.5C31.5 9.7685 25.2315 3.5 17.5 3.5ZM14 24.5C10.1337 24.5 7 21.3663 7 17.5C7 13.6337 10.1337 10.5 14 10.5C15.82 10.5 17.4778 11.1953 18.7215 12.3352L17.0485 13.9732C16.2307 13.2638 15.1667 12.8333 14 12.8333C11.4228 12.8333 9.33333 14.9228 9.33333 17.5C9.33333 20.0772 11.4228 22.1667 14 22.1667C16.3112 22.1667 18.2257 20.4843 18.5967 18.2782H14V15.9448H20.8168L20.8553 16.1C20.9487 16.5527 21 17.0205 21 17.5C21 21.3663 17.8663 24.5 14 24.5ZM26.8333 18.6667V21H24.5V18.6667H22.1667V16.3333H24.5V14H26.8333V16.3333H29.1667V18.6667H26.8333Z" fill="white"/>
</svg>
